<?xml version="1.0" encoding="UTF-8"?>
<svg id="Layer_2" data-name="Layer 2" xmlns="http://www.w3.org/2000/svg" viewBox="0 0 1123 581.5">
  <defs>
    <style>
      .cls-1, .cls-2, .cls-3, .cls-4, .cls-5 {
        fill: #fff;
      }

      .cls-2 {
        font-size: 116.66px;
      }

      .cls-2, .cls-3 {
        font-family: Arial-BoldMT, Arial;
        font-weight: 700;
      }

      .cls-6 {
        letter-spacing: -.06em;
      }

      .cls-7, .cls-4, .cls-5 {
        stroke: #fff;
        stroke-miterlimit: 10;
      }

      .cls-3 {
        font-size: 251.38px;
      }

      .cls-4 {
        stroke-width: 12px;
      }
    </style>
  </defs>
  <ellipse class="cls-7" cx="5.5" cy="541.5" rx="5" ry="1.5"/>
  <path d="m623,3c1.93,0,1.93-3,0-3s-1.93,3,0,3h0Z"/>
  <g>
    <g>
      <ellipse class="cls-1" cx="320.75" cy="218.75" rx="69.75" ry="73.25"/>
      <path class="cls-1" d="m320.75,146c38.18,0,69.25,32.64,69.25,72.75s-31.07,72.75-69.25,72.75-69.25-32.64-69.25-72.75,31.07-72.75,69.25-72.75m0-1c-38.8,0-70.25,33.02-70.25,73.75s31.45,73.75,70.25,73.75,70.25-33.02,70.25-73.75-31.45-73.75-70.25-73.75h0Z"/>
    </g>
    <circle class="cls-5" cx="276.5" cy="307" r="56"/>
    <ellipse class="cls-5" cx="365.5" cy="307.5" rx="51" ry="56.5"/>
  </g>
  <ellipse class="cls-4" cx="320.5" cy="397.5" rx="1.5" ry="76"/>
  <ellipse class="cls-4" cx="290" cy="377" rx="1" ry="38.5" transform="translate(-181.64 315.48) rotate(-45)"/>
  <ellipse class="cls-4" cx="344.84" cy="342.51" rx="56.71" ry=".96" transform="translate(-111.32 510.29) rotate(-65)"/>
  <text class="cls-3" transform="translate(423 347.87) scale(.91 1)"><tspan class="cls-6" x="0" y="0">T</tspan><tspan x="139.68" y="0">ree</tspan></text>
  <text class="cls-2" transform="translate(453 484.58) scale(.69 1)"><tspan x="0" y="0">Photography</tspan></text>
</svg>